# xmcd
#
# Track frame offsets:
#	150
#	10818
#	23086
#	34600
#	54647
#	67661
#	92417
#	106477
#	132100
#	149019
#	171416
#	182928
#
# Disc length: 2569 seconds
#
# Revision: 0
# Processed by: cddbd v1.4PL0 Copyright (c) Steve Scherf et al.
# Submitted via: EasyCDDAExtractor 5.0.5.1
#
DISCID=9d0a070c
DTITLE=Lohues and the Louisiana Bluesclub - Ja Boeh
DYEAR=2003
DGENRE=Blues
TTITLE0=Janine
TTITLE1=Stiekumste Verdriet
TTITLE2=ja Boeh
TTITLE3=regenblues
TTITLE4=Wachten op 'n hittegolf
TTITLE5=Prachtig mooi (mar wat he'j der an)
TTITLE6=Daor knap ie nie van op
TTITLE7=Van 't verstand
TTITLE8=Ach and Wee
TTITLE9=Hoogste tied veur de blues
TTITLE10='t Ien of 't ander
TTITLE11=Picknickweer
EXTD=
EXTT0=
EXTT1=
EXTT2=
EXTT3=
EXTT4=
EXTT5=
EXTT6=
EXTT7=
EXTT8=
EXTT9=
EXTT10=
EXTT11=
PLAYORDER=
